%
M48
M72
T01C0.02000
T02C0.03200
T03C0.03543
T04C0.04000
%
T01
X131588Y69083
X154088Y75333
X184088Y85333
X206588Y85333
X229088Y95333
X249088Y100333
X229088Y110333
X274088Y127833
X269088Y132833
X279088Y132833
X269088Y140333
X254088Y147833
X249088Y140333
X215338Y156583
X234088Y162833
X191588Y160333
X179088Y147833
X149088Y137833
X164088Y127833
X164088Y116583
X136588Y102833
X124088Y97833
X146588Y95333
X161588Y92833
X124088Y117833
X111588Y122833
X121588Y155333
X142838Y156583
X146588Y165333
X247838Y85333
X236588Y75333
X229088Y72833
T02
X214088Y105333
X196588Y105333
X196588Y115333
X214088Y115333
X214088Y125333
X196588Y125333
T03
X191588Y137833
X201588Y137833
X201588Y167833
X191588Y167833
X191588Y92833
X201588Y92833
X211588Y92833
X221588Y92833
X221588Y62833
X211588Y62833
X201588Y62833
X191588Y62833
T04
X101588Y60333
X111588Y60333
X121588Y60333
X131588Y60333
X141588Y60333
X151588Y60333
X161588Y60333
X171588Y60333
X241588Y60333
X251588Y60333
X261588Y60333
X271588Y60333
X281588Y60333
X291588Y60333
X291588Y170333
X281588Y170333
X271588Y170333
X261588Y170333
X251588Y170333
X241588Y170333
X171588Y170333
X161588Y170333
X151588Y170333
X141588Y170333
X131588Y170333
X121588Y170333
X111588Y170333
X101588Y170333
M30
