G75*
%MOIN*%
%OFA0B0*%
%FSLAX25Y25*%
%IPPOS*%
%LPD*%
%AMOC8*
5,1,8,0,0,1.08239X$1,22.5*
%
%ADD10R,0.20000X0.09000*%
%ADD11C,0.07400*%
%ADD12C,0.02400*%
%ADD13C,0.04000*%
%ADD14C,0.01600*%
%ADD15C,0.01200*%
D10*
X0321113Y0130433D03*
X0321113Y0165233D03*
D11*
X0101588Y0060333D03*
X0111588Y0060333D03*
X0121588Y0060333D03*
X0131588Y0060333D03*
X0141588Y0060333D03*
X0151588Y0060333D03*
X0161588Y0060333D03*
X0171588Y0060333D03*
X0191588Y0062833D03*
X0201588Y0062833D03*
X0211588Y0062833D03*
X0221588Y0062833D03*
X0241588Y0060333D03*
X0251588Y0060333D03*
X0261588Y0060333D03*
X0271588Y0060333D03*
X0281588Y0060333D03*
X0291588Y0060333D03*
X0221588Y0092833D03*
X0211588Y0092833D03*
X0201588Y0092833D03*
X0191588Y0092833D03*
X0196588Y0105333D03*
X0214088Y0105333D03*
X0214088Y0115333D03*
X0196588Y0115333D03*
X0196588Y0125333D03*
X0214088Y0125333D03*
X0201588Y0137833D03*
X0191588Y0137833D03*
X0191588Y0167833D03*
X0201588Y0167833D03*
X0171588Y0170333D03*
X0161588Y0170333D03*
X0151588Y0170333D03*
X0141588Y0170333D03*
X0131588Y0170333D03*
X0121588Y0170333D03*
X0111588Y0170333D03*
X0101588Y0170333D03*
X0241588Y0170333D03*
X0251588Y0170333D03*
X0261588Y0170333D03*
X0271588Y0170333D03*
X0281588Y0170333D03*
X0291588Y0170333D03*
D12*
X0251588Y0170333D02*
X0244088Y0162833D01*
X0234088Y0162833D01*
X0214088Y0162833D01*
X0210338Y0160333D01*
X0191588Y0160333D01*
X0145338Y0160333D01*
X0141588Y0164083D01*
X0141588Y0170333D01*
X0111588Y0170333D02*
X0111588Y0162833D01*
X0109088Y0160333D01*
X0109088Y0137833D01*
X0139088Y0137833D01*
X0144088Y0132833D01*
X0164088Y0132833D01*
X0179088Y0147833D01*
X0254088Y0147833D01*
X0269088Y0132833D02*
X0279088Y0132833D01*
X0229088Y0110333D02*
X0211588Y0092833D01*
D13*
X0206588Y0085333D03*
X0184088Y0085333D03*
X0161588Y0092833D03*
X0146588Y0095333D03*
X0136588Y0102833D03*
X0124088Y0097833D03*
X0164088Y0116583D03*
X0164088Y0127833D03*
X0149088Y0137833D03*
X0179088Y0147833D03*
X0191588Y0160333D03*
X0215338Y0156583D03*
X0234088Y0162833D03*
X0254088Y0147833D03*
X0249088Y0140333D03*
X0269088Y0140333D03*
X0269088Y0132833D03*
X0274088Y0127833D03*
X0279088Y0132833D03*
X0229088Y0110333D03*
X0249088Y0100333D03*
X0229088Y0095333D03*
X0247838Y0085333D03*
X0236588Y0075333D03*
X0229088Y0072833D03*
X0154088Y0075333D03*
X0131588Y0069083D03*
X0124088Y0117833D03*
X0111588Y0122833D03*
X0121588Y0155333D03*
X0142838Y0156583D03*
X0146588Y0165333D03*
D14*
X0147838Y0164083D01*
X0165338Y0164083D01*
X0171588Y0170333D01*
X0176913Y0172373D02*
X0188067Y0172373D01*
X0188360Y0172666D02*
X0186756Y0171062D01*
X0185888Y0168967D01*
X0185888Y0166700D01*
X0186756Y0164605D01*
X0187827Y0163533D01*
X0168748Y0163533D01*
X0170026Y0164811D01*
X0170455Y0164633D01*
X0172722Y0164633D01*
X0174817Y0165501D01*
X0176421Y0167105D01*
X0177288Y0169200D01*
X0177288Y0171467D01*
X0176421Y0173562D01*
X0175799Y0174183D01*
X0237660Y0174183D01*
X0237393Y0173916D01*
X0236884Y0173216D01*
X0236491Y0172445D01*
X0236224Y0171621D01*
X0236088Y0170766D01*
X0236088Y0170533D01*
X0241388Y0170533D01*
X0241388Y0170133D01*
X0236088Y0170133D01*
X0236088Y0169900D01*
X0236224Y0169045D01*
X0236491Y0168222D01*
X0236884Y0167451D01*
X0237393Y0166750D01*
X0238005Y0166138D01*
X0238150Y0166033D01*
X0236545Y0166033D01*
X0236354Y0166224D01*
X0234884Y0166833D01*
X0233293Y0166833D01*
X0231823Y0166224D01*
X0231632Y0166033D01*
X0214405Y0166033D01*
X0214092Y0166096D01*
X0213775Y0166033D01*
X0213452Y0166033D01*
X0213157Y0165911D01*
X0212843Y0165849D01*
X0212574Y0165670D01*
X0212276Y0165546D01*
X0212050Y0165320D01*
X0209370Y0163533D01*
X0205349Y0163533D01*
X0206421Y0164605D01*
X0207288Y0166700D01*
X0207288Y0168967D01*
X0206421Y0171062D01*
X0204817Y0172666D01*
X0202722Y0173533D01*
X0200455Y0173533D01*
X0198360Y0172666D01*
X0196756Y0171062D01*
X0196588Y0170657D01*
X0196421Y0171062D01*
X0194817Y0172666D01*
X0192722Y0173533D01*
X0190455Y0173533D01*
X0188360Y0172666D01*
X0186637Y0170775D02*
X0177288Y0170775D01*
X0177279Y0169176D02*
X0185975Y0169176D01*
X0185888Y0167578D02*
X0176617Y0167578D01*
X0175295Y0165979D02*
X0186187Y0165979D01*
X0186980Y0164381D02*
X0169595Y0164381D01*
X0176011Y0173972D02*
X0237449Y0173972D01*
X0236468Y0172373D02*
X0205110Y0172373D01*
X0206540Y0170775D02*
X0236090Y0170775D01*
X0236203Y0169176D02*
X0207202Y0169176D01*
X0207288Y0167578D02*
X0236820Y0167578D01*
X0213321Y0165979D02*
X0206990Y0165979D01*
X0206197Y0164381D02*
X0210640Y0164381D01*
X0196637Y0170775D02*
X0196540Y0170775D01*
X0195110Y0172373D02*
X0198067Y0172373D01*
X0149088Y0152833D02*
X0261588Y0152833D01*
X0261588Y0170333D01*
X0271588Y0170333D02*
X0271588Y0167833D01*
X0286588Y0155333D01*
X0286588Y0077833D01*
X0239088Y0077833D01*
X0236588Y0075333D01*
X0234088Y0077833D01*
X0176588Y0077833D01*
X0161588Y0092833D01*
X0157761Y0094046D02*
X0150385Y0094046D01*
X0150588Y0094538D02*
X0149979Y0093068D01*
X0148854Y0091942D01*
X0147384Y0091333D01*
X0145793Y0091333D01*
X0144323Y0091942D01*
X0143197Y0093068D01*
X0142588Y0094538D01*
X0142588Y0096129D01*
X0143197Y0097599D01*
X0143788Y0098190D01*
X0143788Y0098390D01*
X0144215Y0099419D01*
X0145002Y0100207D01*
X0146031Y0100633D01*
X0164645Y0100633D01*
X0165674Y0100207D01*
X0180088Y0085793D01*
X0180088Y0086129D01*
X0180697Y0087599D01*
X0181823Y0088724D01*
X0183293Y0089333D01*
X0184884Y0089333D01*
X0186354Y0088724D01*
X0187145Y0087933D01*
X0188523Y0087933D01*
X0188360Y0088001D01*
X0186756Y0089605D01*
X0185888Y0091700D01*
X0185888Y0093967D01*
X0185916Y0094033D01*
X0164436Y0112583D01*
X0163293Y0112583D01*
X0161823Y0113192D01*
X0160697Y0114318D01*
X0160088Y0115788D01*
X0160088Y0117379D01*
X0160697Y0118849D01*
X0161823Y0119974D01*
X0163293Y0120583D01*
X0164884Y0120583D01*
X0166354Y0119974D01*
X0167479Y0118849D01*
X0168088Y0117379D01*
X0168088Y0116828D01*
X0189655Y0098202D01*
X0190455Y0098533D01*
X0192722Y0098533D01*
X0194817Y0097666D01*
X0196421Y0096062D01*
X0196588Y0095657D01*
X0196756Y0096062D01*
X0198360Y0097666D01*
X0200455Y0098533D01*
X0202722Y0098533D01*
X0204817Y0097666D01*
X0206421Y0096062D01*
X0206588Y0095657D01*
X0206756Y0096062D01*
X0208360Y0097666D01*
X0210455Y0098533D01*
X0212722Y0098533D01*
X0212751Y0098521D01*
X0213863Y0099633D01*
X0212955Y0099633D01*
X0210860Y0100501D01*
X0209256Y0102105D01*
X0208388Y0104200D01*
X0208388Y0106467D01*
X0209256Y0108562D01*
X0210860Y0110166D01*
X0211265Y0110333D01*
X0210860Y0110501D01*
X0209256Y0112105D01*
X0208388Y0114200D01*
X0208388Y0116467D01*
X0209256Y0118562D01*
X0210860Y0120166D01*
X0211265Y0120333D01*
X0210860Y0120501D01*
X0209256Y0122105D01*
X0208388Y0124200D01*
X0208388Y0126467D01*
X0209256Y0128562D01*
X0210860Y0130166D01*
X0212955Y0131033D01*
X0215222Y0131033D01*
X0217317Y0130166D01*
X0218921Y0128562D01*
X0219788Y0126467D01*
X0219788Y0124200D01*
X0218921Y0122105D01*
X0217317Y0120501D01*
X0216912Y0120333D01*
X0217317Y0120166D01*
X0218921Y0118562D01*
X0219788Y0116467D01*
X0219788Y0114200D01*
X0218921Y0112105D01*
X0217317Y0110501D01*
X0216912Y0110333D01*
X0217317Y0110166D01*
X0218921Y0108562D01*
X0219788Y0106467D01*
X0219788Y0105559D01*
X0225088Y0110859D01*
X0225088Y0111129D01*
X0225697Y0112599D01*
X0226823Y0113724D01*
X0228293Y0114333D01*
X0229884Y0114333D01*
X0231354Y0113724D01*
X0232479Y0112599D01*
X0233088Y0111129D01*
X0233088Y0109538D01*
X0232479Y0108068D01*
X0231354Y0106942D01*
X0229884Y0106333D01*
X0229614Y0106333D01*
X0221814Y0098533D01*
X0222722Y0098533D01*
X0224817Y0097666D01*
X0225459Y0097024D01*
X0225697Y0097599D01*
X0226823Y0098724D01*
X0228293Y0099333D01*
X0229129Y0099333D01*
X0261288Y0131493D01*
X0261288Y0135890D01*
X0261715Y0136919D01*
X0262502Y0137707D01*
X0265088Y0140293D01*
X0265088Y0141129D01*
X0265697Y0142599D01*
X0266823Y0143724D01*
X0268293Y0144333D01*
X0269884Y0144333D01*
X0271354Y0143724D01*
X0272479Y0142599D01*
X0273088Y0141129D01*
X0273088Y0139538D01*
X0272479Y0138068D01*
X0271354Y0136942D01*
X0269884Y0136333D01*
X0269048Y0136333D01*
X0266888Y0134174D01*
X0266888Y0129776D01*
X0266462Y0128747D01*
X0233088Y0095374D01*
X0233088Y0094538D01*
X0232479Y0093068D01*
X0231354Y0091942D01*
X0229884Y0091333D01*
X0228293Y0091333D01*
X0227288Y0091749D01*
X0227288Y0091700D01*
X0226421Y0089605D01*
X0224817Y0088001D01*
X0222722Y0087133D01*
X0220455Y0087133D01*
X0218360Y0088001D01*
X0216756Y0089605D01*
X0216588Y0090010D01*
X0216421Y0089605D01*
X0214817Y0088001D01*
X0212722Y0087133D01*
X0210455Y0087133D01*
X0210114Y0087274D01*
X0210588Y0086129D01*
X0210588Y0084538D01*
X0210007Y0083133D01*
X0227929Y0083133D01*
X0245088Y0100293D01*
X0245088Y0101129D01*
X0245697Y0102599D01*
X0246823Y0103724D01*
X0248293Y0104333D01*
X0249129Y0104333D01*
X0270599Y0125804D01*
X0270088Y0127038D01*
X0270088Y0128629D01*
X0270697Y0130099D01*
X0271823Y0131224D01*
X0273293Y0131833D01*
X0274884Y0131833D01*
X0276354Y0131224D01*
X0277479Y0130099D01*
X0278088Y0128629D01*
X0278088Y0127038D01*
X0277479Y0125568D01*
X0276888Y0124976D01*
X0276888Y0124776D01*
X0276462Y0123747D01*
X0275674Y0122960D01*
X0253088Y0100374D01*
X0253088Y0099538D01*
X0252479Y0098068D01*
X0251354Y0096942D01*
X0249884Y0096333D01*
X0249048Y0096333D01*
X0233348Y0080633D01*
X0234645Y0080633D01*
X0235674Y0080207D01*
X0236548Y0079333D01*
X0236629Y0079333D01*
X0237502Y0080207D01*
X0238531Y0080633D01*
X0283788Y0080633D01*
X0283788Y0082733D01*
X0250895Y0082733D01*
X0250104Y0081942D01*
X0248634Y0081333D01*
X0247043Y0081333D01*
X0245573Y0081942D01*
X0244447Y0083068D01*
X0243838Y0084538D01*
X0243838Y0086129D01*
X0244447Y0087599D01*
X0245573Y0088724D01*
X0247043Y0089333D01*
X0248634Y0089333D01*
X0250104Y0088724D01*
X0250895Y0087933D01*
X0281488Y0087933D01*
X0281488Y0141756D01*
X0273211Y0150033D01*
X0151888Y0150033D01*
X0151888Y0140690D01*
X0152479Y0140099D01*
X0153088Y0138629D01*
X0153088Y0137038D01*
X0152479Y0135568D01*
X0151354Y0134442D01*
X0149884Y0133833D01*
X0148293Y0133833D01*
X0146823Y0134442D01*
X0145697Y0135568D01*
X0145088Y0137038D01*
X0145088Y0138629D01*
X0145697Y0140099D01*
X0146288Y0140690D01*
X0146288Y0153390D01*
X0146534Y0153983D01*
X0145895Y0153983D01*
X0145104Y0153192D01*
X0143634Y0152583D01*
X0142043Y0152583D01*
X0140573Y0153192D01*
X0139447Y0154318D01*
X0138838Y0155788D01*
X0138838Y0157379D01*
X0139447Y0158849D01*
X0140573Y0159974D01*
X0140996Y0160150D01*
X0139776Y0161370D01*
X0138876Y0162271D01*
X0138388Y0163447D01*
X0138388Y0165489D01*
X0138360Y0165501D01*
X0136756Y0167105D01*
X0136588Y0167510D01*
X0136421Y0167105D01*
X0134817Y0165501D01*
X0134388Y0165323D01*
X0134388Y0164776D01*
X0133962Y0163747D01*
X0133174Y0162960D01*
X0125588Y0155374D01*
X0125588Y0154538D01*
X0124979Y0153068D01*
X0123854Y0151942D01*
X0122384Y0151333D01*
X0120793Y0151333D01*
X0119323Y0151942D01*
X0118197Y0153068D01*
X0117588Y0154538D01*
X0117588Y0156129D01*
X0118197Y0157599D01*
X0119323Y0158724D01*
X0120793Y0159333D01*
X0121629Y0159333D01*
X0128078Y0165783D01*
X0126756Y0167105D01*
X0126588Y0167510D01*
X0126421Y0167105D01*
X0124817Y0165501D01*
X0122722Y0164633D01*
X0120455Y0164633D01*
X0118360Y0165501D01*
X0116756Y0167105D01*
X0116469Y0167798D01*
X0116292Y0167451D01*
X0115784Y0166750D01*
X0115171Y0166138D01*
X0114471Y0165629D01*
X0113700Y0165236D01*
X0112876Y0164969D01*
X0112021Y0164833D01*
X0111788Y0164833D01*
X0111788Y0170133D01*
X0111388Y0170133D01*
X0111388Y0164833D01*
X0111156Y0164833D01*
X0110300Y0164969D01*
X0109477Y0165236D01*
X0108706Y0165629D01*
X0108005Y0166138D01*
X0107393Y0166750D01*
X0106884Y0167451D01*
X0106708Y0167798D01*
X0106421Y0167105D01*
X0104817Y0165501D01*
X0102722Y0164633D01*
X0100455Y0164633D01*
X0098360Y0165501D01*
X0096756Y0167105D01*
X0095888Y0169200D01*
X0095888Y0171467D01*
X0096756Y0173562D01*
X0097377Y0174183D01*
X0083988Y0174183D01*
X0083988Y0147833D01*
X0109088Y0147833D01*
X0109088Y0125990D01*
X0109323Y0126224D01*
X0110793Y0126833D01*
X0112384Y0126833D01*
X0113854Y0126224D01*
X0114979Y0125099D01*
X0115588Y0123629D01*
X0115588Y0122038D01*
X0114979Y0120568D01*
X0114388Y0119976D01*
X0114388Y0104593D01*
X0115002Y0105207D01*
X0116031Y0105633D01*
X0133732Y0105633D01*
X0134323Y0106224D01*
X0135793Y0106833D01*
X0137384Y0106833D01*
X0138854Y0106224D01*
X0139979Y0105099D01*
X0140588Y0103629D01*
X0140588Y0102038D01*
X0139979Y0100568D01*
X0138854Y0099442D01*
X0137384Y0098833D01*
X0135793Y0098833D01*
X0134323Y0099442D01*
X0133732Y0100033D01*
X0127507Y0100033D01*
X0128088Y0098629D01*
X0128088Y0097038D01*
X0127479Y0095568D01*
X0126888Y0094976D01*
X0126888Y0071493D01*
X0127856Y0070525D01*
X0128197Y0071349D01*
X0129323Y0072474D01*
X0130793Y0073083D01*
X0132384Y0073083D01*
X0133854Y0072474D01*
X0134445Y0071883D01*
X0151965Y0071883D01*
X0151823Y0071942D01*
X0150697Y0073068D01*
X0150088Y0074538D01*
X0150088Y0076129D01*
X0150697Y0077599D01*
X0151823Y0078724D01*
X0153293Y0079333D01*
X0154884Y0079333D01*
X0156354Y0078724D01*
X0156945Y0078133D01*
X0172329Y0078133D01*
X0161629Y0088833D01*
X0160793Y0088833D01*
X0159323Y0089442D01*
X0158197Y0090568D01*
X0157588Y0092038D01*
X0157588Y0093629D01*
X0158170Y0095033D01*
X0150588Y0095033D01*
X0150588Y0094538D01*
X0146588Y0095333D02*
X0146588Y0097833D01*
X0164088Y0097833D01*
X0181588Y0080333D01*
X0227838Y0080333D01*
X0229088Y0080333D01*
X0249088Y0100333D01*
X0274088Y0125333D01*
X0274088Y0127833D01*
X0270330Y0129213D02*
X0266655Y0129213D01*
X0266888Y0130812D02*
X0271410Y0130812D01*
X0270088Y0127615D02*
X0265330Y0127615D01*
X0263731Y0126016D02*
X0270511Y0126016D01*
X0269213Y0124418D02*
X0262133Y0124418D01*
X0260534Y0122819D02*
X0267615Y0122819D01*
X0266016Y0121221D02*
X0258936Y0121221D01*
X0257337Y0119622D02*
X0264418Y0119622D01*
X0262819Y0118024D02*
X0255739Y0118024D01*
X0254140Y0116425D02*
X0261221Y0116425D01*
X0259622Y0114827D02*
X0252542Y0114827D01*
X0250943Y0113228D02*
X0258024Y0113228D01*
X0256425Y0111630D02*
X0249345Y0111630D01*
X0247746Y0110031D02*
X0254827Y0110031D01*
X0253228Y0108433D02*
X0246148Y0108433D01*
X0244549Y0106834D02*
X0251630Y0106834D01*
X0250031Y0105236D02*
X0242951Y0105236D01*
X0241352Y0103637D02*
X0246735Y0103637D01*
X0245465Y0102039D02*
X0239754Y0102039D01*
X0238155Y0100440D02*
X0245088Y0100440D01*
X0243637Y0098842D02*
X0236557Y0098842D01*
X0234958Y0097243D02*
X0242038Y0097243D01*
X0240440Y0095645D02*
X0233359Y0095645D01*
X0232885Y0094046D02*
X0238841Y0094046D01*
X0237243Y0092448D02*
X0231860Y0092448D01*
X0234046Y0089251D02*
X0226067Y0089251D01*
X0226936Y0090849D02*
X0235644Y0090849D01*
X0232447Y0087652D02*
X0223975Y0087652D01*
X0219202Y0087652D02*
X0213975Y0087652D01*
X0216067Y0089251D02*
X0217110Y0089251D01*
X0210588Y0086054D02*
X0230849Y0086054D01*
X0229250Y0084455D02*
X0210554Y0084455D01*
X0226588Y0075333D02*
X0154088Y0075333D01*
X0151159Y0078061D02*
X0126888Y0078061D01*
X0126888Y0076462D02*
X0150227Y0076462D01*
X0150088Y0074864D02*
X0126888Y0074864D01*
X0126888Y0073265D02*
X0150615Y0073265D01*
X0156212Y0071883D02*
X0156354Y0071942D01*
X0156945Y0072533D01*
X0225088Y0072533D01*
X0225088Y0072038D01*
X0225697Y0070568D01*
X0226823Y0069442D01*
X0228293Y0068833D01*
X0229884Y0068833D01*
X0231354Y0069442D01*
X0232479Y0070568D01*
X0233088Y0072038D01*
X0233088Y0073331D01*
X0233197Y0073068D01*
X0234323Y0071942D01*
X0235793Y0071333D01*
X0237384Y0071333D01*
X0238854Y0071942D01*
X0239979Y0073068D01*
X0240588Y0074538D01*
X0240588Y0075033D01*
X0287145Y0075033D01*
X0288174Y0075460D01*
X0288962Y0076247D01*
X0289388Y0077276D01*
X0289388Y0154907D01*
X0289427Y0155032D01*
X0289388Y0155460D01*
X0289388Y0155890D01*
X0289338Y0156011D01*
X0289326Y0156141D01*
X0289127Y0156522D01*
X0288962Y0156919D01*
X0288870Y0157012D01*
X0288809Y0157128D01*
X0288478Y0157403D01*
X0288174Y0157707D01*
X0288054Y0157757D01*
X0279157Y0165171D01*
X0280455Y0164633D01*
X0282722Y0164633D01*
X0284817Y0165501D01*
X0286421Y0167105D01*
X0286588Y0167510D01*
X0286756Y0167105D01*
X0288360Y0165501D01*
X0290455Y0164633D01*
X0292722Y0164633D01*
X0294817Y0165501D01*
X0296421Y0167105D01*
X0297288Y0169200D01*
X0297288Y0171467D01*
X0296421Y0173562D01*
X0295799Y0174183D01*
X0329188Y0174183D01*
X0329188Y0171533D01*
X0321913Y0171533D01*
X0321913Y0166033D01*
X0320313Y0166033D01*
X0320313Y0164433D01*
X0309313Y0164433D01*
X0309313Y0160496D01*
X0309436Y0160039D01*
X0309673Y0159628D01*
X0310008Y0159293D01*
X0310419Y0159056D01*
X0310876Y0158933D01*
X0320313Y0158933D01*
X0320313Y0164433D01*
X0321913Y0164433D01*
X0321913Y0158933D01*
X0329188Y0158933D01*
X0329188Y0136733D01*
X0321913Y0136733D01*
X0321913Y0131233D01*
X0320313Y0131233D01*
X0320313Y0129633D01*
X0309313Y0129633D01*
X0309313Y0125696D01*
X0309436Y0125239D01*
X0309673Y0124828D01*
X0310008Y0124493D01*
X0310419Y0124256D01*
X0310876Y0124133D01*
X0320313Y0124133D01*
X0320313Y0129633D01*
X0321913Y0129633D01*
X0321913Y0124133D01*
X0329188Y0124133D01*
X0329188Y0056483D01*
X0295799Y0056483D01*
X0296421Y0057105D01*
X0297288Y0059200D01*
X0297288Y0061467D01*
X0296421Y0063562D01*
X0294817Y0065166D01*
X0292722Y0066033D01*
X0290455Y0066033D01*
X0288360Y0065166D01*
X0286756Y0063562D01*
X0286588Y0063157D01*
X0286421Y0063562D01*
X0284817Y0065166D01*
X0282722Y0066033D01*
X0280455Y0066033D01*
X0278360Y0065166D01*
X0276756Y0063562D01*
X0276588Y0063157D01*
X0276421Y0063562D01*
X0274817Y0065166D01*
X0272722Y0066033D01*
X0270455Y0066033D01*
X0268360Y0065166D01*
X0266756Y0063562D01*
X0266588Y0063157D01*
X0266421Y0063562D01*
X0264817Y0065166D01*
X0262722Y0066033D01*
X0260455Y0066033D01*
X0258360Y0065166D01*
X0256756Y0063562D01*
X0256588Y0063157D01*
X0256421Y0063562D01*
X0254817Y0065166D01*
X0252722Y0066033D01*
X0250455Y0066033D01*
X0248360Y0065166D01*
X0246756Y0063562D01*
X0246588Y0063157D01*
X0246421Y0063562D01*
X0244817Y0065166D01*
X0242722Y0066033D01*
X0240455Y0066033D01*
X0238360Y0065166D01*
X0236756Y0063562D01*
X0235888Y0061467D01*
X0235888Y0059200D01*
X0236756Y0057105D01*
X0237377Y0056483D01*
X0175517Y0056483D01*
X0175784Y0056750D01*
X0176292Y0057451D01*
X0176685Y0058222D01*
X0176953Y0059045D01*
X0177088Y0059900D01*
X0177088Y0060133D01*
X0171788Y0060133D01*
X0171788Y0060533D01*
X0171388Y0060533D01*
X0171388Y0060133D01*
X0161788Y0060133D01*
X0161788Y0060533D01*
X0161388Y0060533D01*
X0161388Y0065833D01*
X0161156Y0065833D01*
X0160300Y0065698D01*
X0159477Y0065430D01*
X0158706Y0065037D01*
X0158005Y0064528D01*
X0157393Y0063916D01*
X0156884Y0063216D01*
X0156708Y0062869D01*
X0156421Y0063562D01*
X0154817Y0065166D01*
X0152722Y0066033D01*
X0150455Y0066033D01*
X0148360Y0065166D01*
X0146756Y0063562D01*
X0146588Y0063157D01*
X0146421Y0063562D01*
X0144817Y0065166D01*
X0142722Y0066033D01*
X0140455Y0066033D01*
X0138360Y0065166D01*
X0136756Y0063562D01*
X0136588Y0063157D01*
X0136421Y0063562D01*
X0134817Y0065166D01*
X0133700Y0065628D01*
X0133854Y0065692D01*
X0134445Y0066283D01*
X0187297Y0066283D01*
X0186884Y0065716D01*
X0186491Y0064945D01*
X0186224Y0064121D01*
X0186088Y0063266D01*
X0186088Y0062919D01*
X0191502Y0062919D01*
X0191502Y0062747D01*
X0186088Y0062747D01*
X0186088Y0062400D01*
X0186224Y0061545D01*
X0186491Y0060722D01*
X0186884Y0059951D01*
X0187393Y0059250D01*
X0188005Y0058638D01*
X0188706Y0058129D01*
X0189477Y0057736D01*
X0190300Y0057469D01*
X0191156Y0057333D01*
X0191503Y0057333D01*
X0191503Y0062747D01*
X0191674Y0062747D01*
X0191674Y0057333D01*
X0192021Y0057333D01*
X0192876Y0057469D01*
X0193700Y0057736D01*
X0194471Y0058129D01*
X0195171Y0058638D01*
X0195784Y0059250D01*
X0196292Y0059951D01*
X0196469Y0060298D01*
X0196756Y0059605D01*
X0198360Y0058001D01*
X0200455Y0057133D01*
X0202722Y0057133D01*
X0204817Y0058001D01*
X0206421Y0059605D01*
X0206588Y0060010D01*
X0206756Y0059605D01*
X0208360Y0058001D01*
X0210455Y0057133D01*
X0212722Y0057133D01*
X0214817Y0058001D01*
X0216421Y0059605D01*
X0216588Y0060010D01*
X0216756Y0059605D01*
X0218360Y0058001D01*
X0220455Y0057133D01*
X0222722Y0057133D01*
X0224817Y0058001D01*
X0226421Y0059605D01*
X0227288Y0061700D01*
X0227288Y0063967D01*
X0226421Y0066062D01*
X0224817Y0067666D01*
X0222722Y0068533D01*
X0220455Y0068533D01*
X0218360Y0067666D01*
X0216756Y0066062D01*
X0216588Y0065657D01*
X0216421Y0066062D01*
X0214817Y0067666D01*
X0212722Y0068533D01*
X0210455Y0068533D01*
X0208360Y0067666D01*
X0206756Y0066062D01*
X0206588Y0065657D01*
X0206421Y0066062D01*
X0204817Y0067666D01*
X0204388Y0067843D01*
X0204388Y0069640D01*
X0203962Y0070669D01*
X0203174Y0071457D01*
X0202145Y0071883D01*
X0156212Y0071883D01*
X0161788Y0065833D02*
X0161788Y0060533D01*
X0167088Y0060533D01*
X0171388Y0060533D01*
X0171388Y0065833D01*
X0171156Y0065833D01*
X0170300Y0065698D01*
X0169477Y0065430D01*
X0168706Y0065037D01*
X0168005Y0064528D01*
X0167393Y0063916D01*
X0166884Y0063216D01*
X0166588Y0062635D01*
X0166292Y0063216D01*
X0165784Y0063916D01*
X0165171Y0064528D01*
X0164471Y0065037D01*
X0163700Y0065430D01*
X0162876Y0065698D01*
X0162021Y0065833D01*
X0161788Y0065833D01*
X0161788Y0065273D02*
X0161388Y0065273D01*
X0161388Y0063674D02*
X0161788Y0063674D01*
X0161788Y0062076D02*
X0161388Y0062076D01*
X0161788Y0060477D02*
X0171388Y0060477D01*
X0171788Y0060477D02*
X0186616Y0060477D01*
X0186140Y0062076D02*
X0176805Y0062076D01*
X0176685Y0062445D02*
X0176292Y0063216D01*
X0175784Y0063916D01*
X0175171Y0064528D01*
X0174471Y0065037D01*
X0173700Y0065430D01*
X0172876Y0065698D01*
X0172021Y0065833D01*
X0171788Y0065833D01*
X0171788Y0060533D01*
X0177088Y0060533D01*
X0177088Y0060766D01*
X0176953Y0061621D01*
X0176685Y0062445D01*
X0175959Y0063674D02*
X0186153Y0063674D01*
X0186659Y0065273D02*
X0174009Y0065273D01*
X0171788Y0065273D02*
X0171388Y0065273D01*
X0171388Y0063674D02*
X0171788Y0063674D01*
X0171788Y0062076D02*
X0171388Y0062076D01*
X0169168Y0065273D02*
X0164009Y0065273D01*
X0165959Y0063674D02*
X0167217Y0063674D01*
X0159168Y0065273D02*
X0154558Y0065273D01*
X0156308Y0063674D02*
X0157217Y0063674D01*
X0148619Y0065273D02*
X0144558Y0065273D01*
X0146308Y0063674D02*
X0146868Y0063674D01*
X0138619Y0065273D02*
X0134558Y0065273D01*
X0136308Y0063674D02*
X0136868Y0063674D01*
X0131588Y0062833D02*
X0124088Y0070333D01*
X0124088Y0097833D01*
X0128000Y0098842D02*
X0135773Y0098842D01*
X0137404Y0098842D02*
X0143975Y0098842D01*
X0143050Y0097243D02*
X0128088Y0097243D01*
X0127511Y0095645D02*
X0142588Y0095645D01*
X0142792Y0094046D02*
X0126888Y0094046D01*
X0126888Y0092448D02*
X0143817Y0092448D01*
X0149360Y0092448D02*
X0157588Y0092448D01*
X0158081Y0090849D02*
X0126888Y0090849D01*
X0126888Y0089251D02*
X0159785Y0089251D01*
X0162810Y0087652D02*
X0126888Y0087652D01*
X0126888Y0086054D02*
X0164408Y0086054D01*
X0166007Y0084455D02*
X0126888Y0084455D01*
X0126888Y0082857D02*
X0167605Y0082857D01*
X0169204Y0081258D02*
X0126888Y0081258D01*
X0126888Y0079660D02*
X0170802Y0079660D01*
X0179828Y0086054D02*
X0180088Y0086054D01*
X0180750Y0087652D02*
X0178229Y0087652D01*
X0176631Y0089251D02*
X0183093Y0089251D01*
X0185084Y0089251D02*
X0187110Y0089251D01*
X0186241Y0090849D02*
X0175032Y0090849D01*
X0173434Y0092448D02*
X0185888Y0092448D01*
X0185900Y0094046D02*
X0171835Y0094046D01*
X0170237Y0095645D02*
X0184049Y0095645D01*
X0182198Y0097243D02*
X0168638Y0097243D01*
X0167040Y0098842D02*
X0180348Y0098842D01*
X0178497Y0100440D02*
X0165112Y0100440D01*
X0172944Y0105236D02*
X0139843Y0105236D01*
X0140585Y0103637D02*
X0174795Y0103637D01*
X0176646Y0102039D02*
X0140588Y0102039D01*
X0139852Y0100440D02*
X0145565Y0100440D01*
X0136588Y0102833D02*
X0116588Y0102833D01*
X0116588Y0067833D01*
X0121588Y0062833D01*
X0111588Y0062833D02*
X0111588Y0122833D01*
X0115588Y0122819D02*
X0125115Y0122819D01*
X0124129Y0121833D02*
X0123293Y0121833D01*
X0121823Y0121224D01*
X0120697Y0120099D01*
X0120088Y0118629D01*
X0120088Y0117038D01*
X0120697Y0115568D01*
X0121823Y0114442D01*
X0123293Y0113833D01*
X0124884Y0113833D01*
X0126354Y0114442D01*
X0127479Y0115568D01*
X0128088Y0117038D01*
X0128088Y0117874D01*
X0131498Y0121283D01*
X0174179Y0121283D01*
X0190888Y0104574D01*
X0190888Y0104200D01*
X0191756Y0102105D01*
X0193360Y0100501D01*
X0195455Y0099633D01*
X0197722Y0099633D01*
X0199817Y0100501D01*
X0201421Y0102105D01*
X0202288Y0104200D01*
X0202288Y0106467D01*
X0201421Y0108562D01*
X0199817Y0110166D01*
X0199412Y0110333D01*
X0199817Y0110501D01*
X0201421Y0112105D01*
X0202288Y0114200D01*
X0202288Y0116467D01*
X0201421Y0118562D01*
X0199817Y0120166D01*
X0199412Y0120333D01*
X0199817Y0120501D01*
X0201421Y0122105D01*
X0202288Y0124200D01*
X0202288Y0126467D01*
X0201421Y0128562D01*
X0199817Y0130166D01*
X0197722Y0131033D01*
X0195455Y0131033D01*
X0193360Y0130166D01*
X0191756Y0128562D01*
X0190888Y0126467D01*
X0190888Y0124200D01*
X0191756Y0122105D01*
X0193360Y0120501D01*
X0193765Y0120333D01*
X0193360Y0120166D01*
X0191756Y0118562D01*
X0190888Y0116467D01*
X0190888Y0114200D01*
X0191756Y0112105D01*
X0193360Y0110501D01*
X0193765Y0110333D01*
X0193360Y0110166D01*
X0193288Y0110094D01*
X0176924Y0126457D01*
X0175895Y0126883D01*
X0168024Y0126883D01*
X0168088Y0127038D01*
X0168088Y0127874D01*
X0181498Y0141283D01*
X0186977Y0141283D01*
X0186756Y0141062D01*
X0185888Y0138967D01*
X0185888Y0136700D01*
X0186756Y0134605D01*
X0188360Y0133001D01*
X0190455Y0132133D01*
X0192722Y0132133D01*
X0194817Y0133001D01*
X0196421Y0134605D01*
X0196588Y0135010D01*
X0196756Y0134605D01*
X0198360Y0133001D01*
X0200455Y0132133D01*
X0202722Y0132133D01*
X0204817Y0133001D01*
X0206421Y0134605D01*
X0207288Y0136700D01*
X0207288Y0138967D01*
X0206421Y0141062D01*
X0206199Y0141283D01*
X0244179Y0141283D01*
X0245088Y0140374D01*
X0245088Y0139538D01*
X0245697Y0138068D01*
X0246823Y0136942D01*
X0248293Y0136333D01*
X0249884Y0136333D01*
X0251354Y0136942D01*
X0252479Y0138068D01*
X0253088Y0139538D01*
X0253088Y0141129D01*
X0252479Y0142599D01*
X0251354Y0143724D01*
X0249884Y0144333D01*
X0249048Y0144333D01*
X0247712Y0145669D01*
X0246924Y0146457D01*
X0245895Y0146883D01*
X0179781Y0146883D01*
X0178752Y0146457D01*
X0177965Y0145669D01*
X0164129Y0131833D01*
X0163293Y0131833D01*
X0161823Y0131224D01*
X0160697Y0130099D01*
X0160088Y0128629D01*
X0160088Y0127038D01*
X0160152Y0126883D01*
X0129781Y0126883D01*
X0128752Y0126457D01*
X0127965Y0125669D01*
X0124129Y0121833D01*
X0121819Y0121221D02*
X0115250Y0121221D01*
X0114388Y0119622D02*
X0120500Y0119622D01*
X0120088Y0118024D02*
X0114388Y0118024D01*
X0114388Y0116425D02*
X0120342Y0116425D01*
X0121438Y0114827D02*
X0114388Y0114827D01*
X0114388Y0113228D02*
X0161787Y0113228D01*
X0160486Y0114827D02*
X0126739Y0114827D01*
X0127835Y0116425D02*
X0160088Y0116425D01*
X0160355Y0118024D02*
X0128239Y0118024D01*
X0129837Y0119622D02*
X0161471Y0119622D01*
X0166706Y0119622D02*
X0175840Y0119622D01*
X0177438Y0118024D02*
X0167821Y0118024D01*
X0168555Y0116425D02*
X0179037Y0116425D01*
X0180635Y0114827D02*
X0170406Y0114827D01*
X0172257Y0113228D02*
X0182234Y0113228D01*
X0183832Y0111630D02*
X0174108Y0111630D01*
X0175959Y0110031D02*
X0185431Y0110031D01*
X0187029Y0108433D02*
X0177810Y0108433D01*
X0179661Y0106834D02*
X0188628Y0106834D01*
X0190226Y0105236D02*
X0181512Y0105236D01*
X0183362Y0103637D02*
X0191121Y0103637D01*
X0191822Y0102039D02*
X0185213Y0102039D01*
X0187064Y0100440D02*
X0193507Y0100440D01*
X0188915Y0098842D02*
X0213071Y0098842D01*
X0211007Y0100440D02*
X0199670Y0100440D01*
X0201355Y0102039D02*
X0209322Y0102039D01*
X0208621Y0103637D02*
X0202055Y0103637D01*
X0202288Y0105236D02*
X0208388Y0105236D01*
X0208540Y0106834D02*
X0202136Y0106834D01*
X0201474Y0108433D02*
X0209203Y0108433D01*
X0210725Y0110031D02*
X0199952Y0110031D01*
X0200946Y0111630D02*
X0209731Y0111630D01*
X0208791Y0113228D02*
X0201886Y0113228D01*
X0202288Y0114827D02*
X0208388Y0114827D01*
X0208388Y0116425D02*
X0202288Y0116425D01*
X0201644Y0118024D02*
X0209033Y0118024D01*
X0210316Y0119622D02*
X0200360Y0119622D01*
X0200537Y0121221D02*
X0210140Y0121221D01*
X0208960Y0122819D02*
X0201717Y0122819D01*
X0202288Y0124418D02*
X0208388Y0124418D01*
X0208388Y0126016D02*
X0202288Y0126016D01*
X0201813Y0127615D02*
X0208864Y0127615D01*
X0209907Y0129213D02*
X0200769Y0129213D01*
X0198257Y0130812D02*
X0212420Y0130812D01*
X0215757Y0130812D02*
X0260607Y0130812D01*
X0261288Y0132410D02*
X0203391Y0132410D01*
X0205825Y0134009D02*
X0261288Y0134009D01*
X0261288Y0135607D02*
X0206836Y0135607D01*
X0207288Y0137206D02*
X0246559Y0137206D01*
X0245392Y0138804D02*
X0207288Y0138804D01*
X0206694Y0140403D02*
X0245059Y0140403D01*
X0245338Y0144083D02*
X0249088Y0140333D01*
X0252785Y0138804D02*
X0263600Y0138804D01*
X0265088Y0140403D02*
X0253088Y0140403D01*
X0252727Y0142001D02*
X0265450Y0142001D01*
X0266698Y0143600D02*
X0251479Y0143600D01*
X0248183Y0145198D02*
X0278046Y0145198D01*
X0279645Y0143600D02*
X0271479Y0143600D01*
X0272727Y0142001D02*
X0281243Y0142001D01*
X0281488Y0140403D02*
X0273088Y0140403D01*
X0272785Y0138804D02*
X0281488Y0138804D01*
X0281488Y0137206D02*
X0271618Y0137206D01*
X0268322Y0135607D02*
X0281488Y0135607D01*
X0281488Y0134009D02*
X0266888Y0134009D01*
X0266888Y0132410D02*
X0281488Y0132410D01*
X0281488Y0130812D02*
X0276767Y0130812D01*
X0277846Y0129213D02*
X0281488Y0129213D01*
X0281488Y0127615D02*
X0278088Y0127615D01*
X0277665Y0126016D02*
X0281488Y0126016D01*
X0281488Y0124418D02*
X0276740Y0124418D01*
X0275534Y0122819D02*
X0281488Y0122819D01*
X0281488Y0121221D02*
X0273936Y0121221D01*
X0272337Y0119622D02*
X0281488Y0119622D01*
X0281488Y0118024D02*
X0270739Y0118024D01*
X0269140Y0116425D02*
X0281488Y0116425D01*
X0281488Y0114827D02*
X0267542Y0114827D01*
X0265943Y0113228D02*
X0281488Y0113228D01*
X0281488Y0111630D02*
X0264345Y0111630D01*
X0262746Y0110031D02*
X0281488Y0110031D01*
X0281488Y0108433D02*
X0261148Y0108433D01*
X0259549Y0106834D02*
X0281488Y0106834D01*
X0281488Y0105236D02*
X0257951Y0105236D01*
X0256352Y0103637D02*
X0281488Y0103637D01*
X0281488Y0102039D02*
X0254754Y0102039D01*
X0253155Y0100440D02*
X0281488Y0100440D01*
X0281488Y0098842D02*
X0252800Y0098842D01*
X0251655Y0097243D02*
X0281488Y0097243D01*
X0281488Y0095645D02*
X0248359Y0095645D01*
X0246761Y0094046D02*
X0281488Y0094046D01*
X0281488Y0092448D02*
X0245162Y0092448D01*
X0243564Y0090849D02*
X0281488Y0090849D01*
X0281488Y0089251D02*
X0248834Y0089251D01*
X0246843Y0089251D02*
X0241965Y0089251D01*
X0240367Y0087652D02*
X0244500Y0087652D01*
X0243838Y0086054D02*
X0238768Y0086054D01*
X0237170Y0084455D02*
X0243873Y0084455D01*
X0244658Y0082857D02*
X0235571Y0082857D01*
X0233973Y0081258D02*
X0283788Y0081258D01*
X0289388Y0081258D02*
X0329188Y0081258D01*
X0329188Y0079660D02*
X0289388Y0079660D01*
X0289388Y0078061D02*
X0329188Y0078061D01*
X0329188Y0076462D02*
X0289051Y0076462D01*
X0289388Y0082857D02*
X0329188Y0082857D01*
X0329188Y0084455D02*
X0289388Y0084455D01*
X0289388Y0086054D02*
X0329188Y0086054D01*
X0329188Y0087652D02*
X0289388Y0087652D01*
X0289388Y0089251D02*
X0329188Y0089251D01*
X0329188Y0090849D02*
X0289388Y0090849D01*
X0289388Y0092448D02*
X0329188Y0092448D01*
X0329188Y0094046D02*
X0289388Y0094046D01*
X0289388Y0095645D02*
X0329188Y0095645D01*
X0329188Y0097243D02*
X0289388Y0097243D01*
X0289388Y0098842D02*
X0329188Y0098842D01*
X0329188Y0100440D02*
X0289388Y0100440D01*
X0289388Y0102039D02*
X0329188Y0102039D01*
X0329188Y0103637D02*
X0289388Y0103637D01*
X0289388Y0105236D02*
X0329188Y0105236D01*
X0329188Y0106834D02*
X0289388Y0106834D01*
X0289388Y0108433D02*
X0329188Y0108433D01*
X0329188Y0110031D02*
X0289388Y0110031D01*
X0289388Y0111630D02*
X0329188Y0111630D01*
X0329188Y0113228D02*
X0289388Y0113228D01*
X0289388Y0114827D02*
X0329188Y0114827D01*
X0329188Y0116425D02*
X0289388Y0116425D01*
X0289388Y0118024D02*
X0329188Y0118024D01*
X0329188Y0119622D02*
X0289388Y0119622D01*
X0289388Y0121221D02*
X0329188Y0121221D01*
X0329188Y0122819D02*
X0289388Y0122819D01*
X0289388Y0124418D02*
X0310138Y0124418D01*
X0309313Y0126016D02*
X0289388Y0126016D01*
X0289388Y0127615D02*
X0309313Y0127615D01*
X0309313Y0129213D02*
X0289388Y0129213D01*
X0289388Y0130812D02*
X0320313Y0130812D01*
X0320313Y0131233D02*
X0309313Y0131233D01*
X0309313Y0135170D01*
X0309436Y0135628D01*
X0309673Y0136039D01*
X0310008Y0136374D01*
X0310419Y0136611D01*
X0310876Y0136733D01*
X0320313Y0136733D01*
X0320313Y0131233D01*
X0320313Y0132410D02*
X0321913Y0132410D01*
X0321913Y0134009D02*
X0320313Y0134009D01*
X0320313Y0135607D02*
X0321913Y0135607D01*
X0329188Y0137206D02*
X0289388Y0137206D01*
X0289388Y0138804D02*
X0329188Y0138804D01*
X0329188Y0140403D02*
X0289388Y0140403D01*
X0289388Y0142001D02*
X0329188Y0142001D01*
X0329188Y0143600D02*
X0289388Y0143600D01*
X0289388Y0145198D02*
X0329188Y0145198D01*
X0329188Y0146797D02*
X0289388Y0146797D01*
X0289388Y0148395D02*
X0329188Y0148395D01*
X0329188Y0149994D02*
X0289388Y0149994D01*
X0289388Y0151593D02*
X0329188Y0151593D01*
X0329188Y0153191D02*
X0289388Y0153191D01*
X0289388Y0154790D02*
X0329188Y0154790D01*
X0329188Y0156388D02*
X0289197Y0156388D01*
X0287778Y0157987D02*
X0329188Y0157987D01*
X0321913Y0159585D02*
X0320313Y0159585D01*
X0320313Y0161184D02*
X0321913Y0161184D01*
X0321913Y0162782D02*
X0320313Y0162782D01*
X0320313Y0164381D02*
X0321913Y0164381D01*
X0320313Y0165979D02*
X0295295Y0165979D01*
X0296617Y0167578D02*
X0309313Y0167578D01*
X0309313Y0166033D02*
X0320313Y0166033D01*
X0320313Y0171533D01*
X0310876Y0171533D01*
X0310419Y0171411D01*
X0310008Y0171174D01*
X0309673Y0170839D01*
X0309436Y0170428D01*
X0309313Y0169970D01*
X0309313Y0166033D01*
X0309313Y0164381D02*
X0280105Y0164381D01*
X0282024Y0162782D02*
X0309313Y0162782D01*
X0309313Y0161184D02*
X0283942Y0161184D01*
X0285860Y0159585D02*
X0309716Y0159585D01*
X0320313Y0167578D02*
X0321913Y0167578D01*
X0321913Y0169176D02*
X0320313Y0169176D01*
X0320313Y0170775D02*
X0321913Y0170775D01*
X0329188Y0172373D02*
X0296913Y0172373D01*
X0297288Y0170775D02*
X0309636Y0170775D01*
X0309313Y0169176D02*
X0297279Y0169176D01*
X0287882Y0165979D02*
X0285295Y0165979D01*
X0296011Y0173972D02*
X0329188Y0173972D01*
X0274088Y0152833D02*
X0261588Y0152833D01*
X0273251Y0149994D02*
X0151888Y0149994D01*
X0151888Y0148395D02*
X0274849Y0148395D01*
X0276448Y0146797D02*
X0246104Y0146797D01*
X0245338Y0144083D02*
X0180338Y0144083D01*
X0164088Y0127833D01*
X0160330Y0129213D02*
X0109088Y0129213D01*
X0109088Y0127615D02*
X0160088Y0127615D01*
X0161410Y0130812D02*
X0109088Y0130812D01*
X0109088Y0132410D02*
X0164706Y0132410D01*
X0166304Y0134009D02*
X0150308Y0134009D01*
X0147869Y0134009D02*
X0109088Y0134009D01*
X0109088Y0135607D02*
X0145681Y0135607D01*
X0145088Y0137206D02*
X0109088Y0137206D01*
X0109088Y0138804D02*
X0145161Y0138804D01*
X0146001Y0140403D02*
X0109088Y0140403D01*
X0109088Y0142001D02*
X0146288Y0142001D01*
X0146288Y0143600D02*
X0109088Y0143600D01*
X0109088Y0145198D02*
X0146288Y0145198D01*
X0146288Y0146797D02*
X0109088Y0146797D01*
X0120167Y0151593D02*
X0083988Y0151593D01*
X0083988Y0153191D02*
X0118146Y0153191D01*
X0117588Y0154790D02*
X0083988Y0154790D01*
X0083988Y0156388D02*
X0117696Y0156388D01*
X0118585Y0157987D02*
X0083988Y0157987D01*
X0083988Y0159585D02*
X0121880Y0159585D01*
X0123479Y0161184D02*
X0083988Y0161184D01*
X0083988Y0162782D02*
X0125077Y0162782D01*
X0126676Y0164381D02*
X0083988Y0164381D01*
X0083988Y0165979D02*
X0097882Y0165979D01*
X0096560Y0167578D02*
X0083988Y0167578D01*
X0083988Y0169176D02*
X0095898Y0169176D01*
X0095888Y0170775D02*
X0083988Y0170775D01*
X0083988Y0172373D02*
X0096264Y0172373D01*
X0097166Y0173972D02*
X0083988Y0173972D01*
X0105295Y0165979D02*
X0108224Y0165979D01*
X0106820Y0167578D02*
X0106617Y0167578D01*
X0111388Y0167578D02*
X0111788Y0167578D01*
X0111788Y0169176D02*
X0111388Y0169176D01*
X0111388Y0165979D02*
X0111788Y0165979D01*
X0114952Y0165979D02*
X0117882Y0165979D01*
X0116560Y0167578D02*
X0116357Y0167578D01*
X0125295Y0165979D02*
X0127882Y0165979D01*
X0131588Y0165333D02*
X0131588Y0170333D01*
X0135295Y0165979D02*
X0137882Y0165979D01*
X0138388Y0164381D02*
X0134224Y0164381D01*
X0132997Y0162782D02*
X0138664Y0162782D01*
X0139963Y0161184D02*
X0131398Y0161184D01*
X0129800Y0159585D02*
X0140183Y0159585D01*
X0139090Y0157987D02*
X0128201Y0157987D01*
X0126603Y0156388D02*
X0138838Y0156388D01*
X0139252Y0154790D02*
X0125588Y0154790D01*
X0125031Y0153191D02*
X0140576Y0153191D01*
X0145101Y0153191D02*
X0146288Y0153191D01*
X0146288Y0151593D02*
X0123010Y0151593D01*
X0121588Y0155333D02*
X0131588Y0165333D01*
X0149088Y0152833D02*
X0149088Y0137833D01*
X0152176Y0140403D02*
X0172698Y0140403D01*
X0171100Y0138804D02*
X0153016Y0138804D01*
X0153088Y0137206D02*
X0169501Y0137206D01*
X0167903Y0135607D02*
X0152496Y0135607D01*
X0151888Y0142001D02*
X0174297Y0142001D01*
X0175895Y0143600D02*
X0151888Y0143600D01*
X0151888Y0145198D02*
X0177494Y0145198D01*
X0179573Y0146797D02*
X0151888Y0146797D01*
X0146288Y0148395D02*
X0083988Y0148395D01*
X0083988Y0149994D02*
X0146288Y0149994D01*
X0175822Y0135607D02*
X0186341Y0135607D01*
X0185888Y0137206D02*
X0177421Y0137206D01*
X0179019Y0138804D02*
X0185888Y0138804D01*
X0186483Y0140403D02*
X0180618Y0140403D01*
X0174224Y0134009D02*
X0187352Y0134009D01*
X0189786Y0132410D02*
X0172625Y0132410D01*
X0171027Y0130812D02*
X0194920Y0130812D01*
X0193391Y0132410D02*
X0199786Y0132410D01*
X0197352Y0134009D02*
X0195825Y0134009D01*
X0192407Y0129213D02*
X0169428Y0129213D01*
X0168088Y0127615D02*
X0191364Y0127615D01*
X0190888Y0126016D02*
X0177365Y0126016D01*
X0178964Y0124418D02*
X0190888Y0124418D01*
X0191460Y0122819D02*
X0180562Y0122819D01*
X0182161Y0121221D02*
X0192640Y0121221D01*
X0192816Y0119622D02*
X0183759Y0119622D01*
X0185358Y0118024D02*
X0191533Y0118024D01*
X0190888Y0116425D02*
X0186956Y0116425D01*
X0188555Y0114827D02*
X0190888Y0114827D01*
X0191291Y0113228D02*
X0190153Y0113228D01*
X0191752Y0111630D02*
X0192231Y0111630D01*
X0194088Y0105333D02*
X0175338Y0124083D01*
X0130338Y0124083D01*
X0124088Y0117833D01*
X0131436Y0121221D02*
X0174241Y0121221D01*
X0164088Y0116583D02*
X0191588Y0092833D01*
X0195240Y0097243D02*
X0197937Y0097243D01*
X0205240Y0097243D02*
X0207937Y0097243D01*
X0222122Y0098842D02*
X0227106Y0098842D01*
X0225550Y0097243D02*
X0225240Y0097243D01*
X0229088Y0095333D02*
X0264088Y0130333D01*
X0264088Y0135333D01*
X0269088Y0140333D01*
X0262001Y0137206D02*
X0251618Y0137206D01*
X0259009Y0129213D02*
X0218269Y0129213D01*
X0219313Y0127615D02*
X0257410Y0127615D01*
X0255812Y0126016D02*
X0219788Y0126016D01*
X0219788Y0124418D02*
X0254213Y0124418D01*
X0252615Y0122819D02*
X0219217Y0122819D01*
X0218037Y0121221D02*
X0251016Y0121221D01*
X0249418Y0119622D02*
X0217860Y0119622D01*
X0219144Y0118024D02*
X0247819Y0118024D01*
X0246221Y0116425D02*
X0219788Y0116425D01*
X0219788Y0114827D02*
X0244622Y0114827D01*
X0243024Y0113228D02*
X0231850Y0113228D01*
X0232881Y0111630D02*
X0241425Y0111630D01*
X0239827Y0110031D02*
X0233088Y0110031D01*
X0232631Y0108433D02*
X0238228Y0108433D01*
X0236629Y0106834D02*
X0231093Y0106834D01*
X0228516Y0105236D02*
X0235031Y0105236D01*
X0233432Y0103637D02*
X0226918Y0103637D01*
X0225319Y0102039D02*
X0231834Y0102039D01*
X0230235Y0100440D02*
X0223721Y0100440D01*
X0221064Y0106834D02*
X0219636Y0106834D01*
X0218974Y0108433D02*
X0222662Y0108433D01*
X0224261Y0110031D02*
X0217452Y0110031D01*
X0218446Y0111630D02*
X0225296Y0111630D01*
X0226326Y0113228D02*
X0219386Y0113228D01*
X0171093Y0106834D02*
X0114388Y0106834D01*
X0114388Y0105236D02*
X0115071Y0105236D01*
X0114388Y0108433D02*
X0169242Y0108433D01*
X0167391Y0110031D02*
X0114388Y0110031D01*
X0114388Y0111630D02*
X0165540Y0111630D01*
X0128312Y0126016D02*
X0114062Y0126016D01*
X0115262Y0124418D02*
X0126713Y0124418D01*
X0109115Y0126016D02*
X0109088Y0126016D01*
X0226588Y0075333D02*
X0229088Y0072833D01*
X0226196Y0070068D02*
X0204211Y0070068D01*
X0204388Y0068470D02*
X0210302Y0068470D01*
X0212875Y0068470D02*
X0220302Y0068470D01*
X0222875Y0068470D02*
X0329188Y0068470D01*
X0329188Y0070068D02*
X0231980Y0070068D01*
X0232935Y0071667D02*
X0234987Y0071667D01*
X0233115Y0073265D02*
X0233088Y0073265D01*
X0238189Y0071667D02*
X0329188Y0071667D01*
X0329188Y0073265D02*
X0240061Y0073265D01*
X0240588Y0074864D02*
X0329188Y0074864D01*
X0329188Y0066871D02*
X0225611Y0066871D01*
X0226748Y0065273D02*
X0238619Y0065273D01*
X0236868Y0063674D02*
X0227288Y0063674D01*
X0227288Y0062076D02*
X0236141Y0062076D01*
X0235888Y0060477D02*
X0226782Y0060477D01*
X0225695Y0058879D02*
X0236021Y0058879D01*
X0236683Y0057280D02*
X0223077Y0057280D01*
X0220100Y0057280D02*
X0213077Y0057280D01*
X0210100Y0057280D02*
X0203077Y0057280D01*
X0200100Y0057280D02*
X0176169Y0057280D01*
X0176899Y0058879D02*
X0187765Y0058879D01*
X0191503Y0058879D02*
X0191674Y0058879D01*
X0191674Y0060477D02*
X0191503Y0060477D01*
X0191503Y0062076D02*
X0191674Y0062076D01*
X0195412Y0058879D02*
X0197482Y0058879D01*
X0201588Y0062833D02*
X0201588Y0069083D01*
X0131588Y0069083D01*
X0128515Y0071667D02*
X0126888Y0071667D01*
X0202668Y0071667D02*
X0225242Y0071667D01*
X0217565Y0066871D02*
X0215611Y0066871D01*
X0207565Y0066871D02*
X0205611Y0066871D01*
X0205695Y0058879D02*
X0207482Y0058879D01*
X0215695Y0058879D02*
X0217482Y0058879D01*
X0244558Y0065273D02*
X0248619Y0065273D01*
X0246868Y0063674D02*
X0246308Y0063674D01*
X0254558Y0065273D02*
X0258619Y0065273D01*
X0256868Y0063674D02*
X0256308Y0063674D01*
X0264558Y0065273D02*
X0268619Y0065273D01*
X0266868Y0063674D02*
X0266308Y0063674D01*
X0274558Y0065273D02*
X0278619Y0065273D01*
X0276868Y0063674D02*
X0276308Y0063674D01*
X0284558Y0065273D02*
X0288619Y0065273D01*
X0286868Y0063674D02*
X0286308Y0063674D01*
X0294558Y0065273D02*
X0329188Y0065273D01*
X0329188Y0063674D02*
X0296308Y0063674D01*
X0297036Y0062076D02*
X0329188Y0062076D01*
X0329188Y0060477D02*
X0297288Y0060477D01*
X0297156Y0058879D02*
X0329188Y0058879D01*
X0329188Y0057280D02*
X0296493Y0057280D01*
X0236955Y0079660D02*
X0236222Y0079660D01*
X0320313Y0124418D02*
X0321913Y0124418D01*
X0321913Y0126016D02*
X0320313Y0126016D01*
X0320313Y0127615D02*
X0321913Y0127615D01*
X0321913Y0129213D02*
X0320313Y0129213D01*
X0309313Y0132410D02*
X0289388Y0132410D01*
X0289388Y0134009D02*
X0309313Y0134009D01*
X0309431Y0135607D02*
X0289388Y0135607D01*
D15*
X0284088Y0142833D02*
X0284088Y0085333D01*
X0247838Y0085333D01*
X0206588Y0085333D02*
X0184088Y0085333D01*
X0194088Y0105333D02*
X0196588Y0105333D01*
X0274088Y0152833D02*
X0284088Y0142833D01*
X0215338Y0156583D02*
X0142838Y0156583D01*
X0131588Y0062833D02*
X0131588Y0060333D01*
X0121588Y0060333D02*
X0121588Y0062833D01*
X0111588Y0062833D02*
X0111588Y0060333D01*
M02*
